<svg version="1.1" id="Layer_1" xmlns="http://www.w3.org/2000/svg" xmlns:xlink="http://www.w3.org/1999/xlink" x="0px" y="0px"
	 width="100%" viewBox="0 0 500 500" enable-background="new 0 0 500 500" xml:space="preserve">
<path fill="#000000" opacity="1.000000" stroke="none" 
	d="
M282.000000,501.000000 
	C188.000015,501.000000 94.500046,501.000000 1.000050,501.000000 
	C1.000033,334.333405 1.000033,167.666794 1.000017,1.000140 
	C167.666565,1.000093 334.333130,1.000093 500.999756,1.000046 
	C500.999847,167.666519 500.999847,334.333038 500.999939,500.999786 
	C428.166656,501.000000 355.333344,501.000000 282.000000,501.000000 
M120.799835,190.537018 
	C120.599228,190.272263 120.340118,190.091217 120.007187,189.989380 
	C120.007187,189.989380 120.004700,189.973328 119.673828,189.372467 
	C116.451065,187.919785 113.251701,185.272842 110.001724,185.209167 
	C89.618156,184.809814 69.221130,184.841690 48.834862,185.149063 
	C46.197777,185.188812 43.597012,187.637543 40.994469,188.996048 
	C40.994469,188.996048 40.967274,188.983398 40.340919,189.269165 
	C39.886063,190.474197 39.431206,191.679230 38.414967,193.524811 
	C38.276806,194.337189 38.018234,195.149490 38.017807,195.961945 
	C37.999592,230.697144 37.993904,265.432404 38.049194,300.167511 
	C38.051155,301.396820 38.685715,302.625183 39.158329,304.580658 
	C40.672943,310.498108 45.667015,310.810272 50.251240,310.888092 
	C62.381996,311.094025 74.519920,310.838593 86.654984,310.840363 
	C102.486053,310.842651 118.318916,311.059967 134.146973,310.862274 
	C138.373749,310.809540 142.274582,308.200531 142.749680,303.982391 
	C143.646225,296.022583 143.652634,287.939880 143.664139,279.907715 
	C143.689392,262.295837 143.518402,244.683334 143.360596,227.071701 
	C143.303986,220.752243 144.592346,214.083710 139.349365,208.904861 
	C136.627747,206.216553 133.849747,203.585312 130.811050,200.425812 
	C130.227966,199.937393 129.644882,199.448959 129.017593,198.977982 
	C129.017593,198.977982 129.041214,198.936691 128.798386,198.416458 
	C128.215759,197.934372 127.633133,197.452286 127.023247,196.996475 
	C127.023247,196.996475 127.029266,196.960617 126.813812,196.519501 
	C126.611862,196.246857 126.349709,196.057602 125.768318,195.561783 
	C125.568489,195.316818 125.331100,195.116333 124.811050,194.433151 
	C124.223755,193.943878 123.636459,193.454605 123.023643,192.997452 
	C123.023643,192.997452 123.033409,192.963150 122.813683,192.531738 
	C122.615120,192.262314 122.356499,192.076462 122.004883,191.994690 
	C122.004883,191.994690 122.025482,191.961685 121.803558,191.535797 
	C121.605888,191.270203 121.350487,191.083603 121.005562,190.993362 
	C121.005562,190.993362 121.023987,190.962006 120.799835,190.537018 
M417.776886,270.891235 
	C417.553314,263.052155 417.329742,255.213104 417.007172,246.591492 
	C415.368286,240.131516 411.041656,236.677231 404.362244,236.059036 
	C393.346649,235.039520 387.110992,239.703705 384.668915,245.267883 
	C384.347412,246.000351 385.872375,248.407135 386.939148,248.731079 
	C390.940521,249.946136 394.087341,247.786102 397.320740,245.577499 
	C402.031036,242.360077 406.123260,244.546600 406.897827,250.731140 
	C402.811646,251.165192 398.555023,251.035599 394.687775,252.199615 
	C391.159027,253.261734 387.021454,254.963486 384.975067,257.731140 
	C380.776611,263.409332 382.295776,269.347961 387.640076,273.344604 
	C392.961029,277.323761 402.475952,276.553253 407.494080,272.353821 
	C410.571869,276.396179 415.859802,276.114777 417.776886,270.891235 
M434.467590,237.107956 
	C433.975891,237.378998 433.484161,237.650040 432.205963,237.983185 
	C430.160065,237.695312 428.114197,237.407455 425.204254,237.324905 
	C424.953644,249.477875 424.689697,261.630676 424.517853,273.784729 
	C424.512817,274.142853 425.477539,274.514679 426.841797,274.913269 
	C428.546661,274.912964 430.251495,274.912628 432.634796,274.957001 
	C433.415192,274.350098 434.195557,273.743164 435.797729,272.774445 
	C435.869446,261.361572 435.952942,249.948715 435.971771,238.535767 
	C435.972565,238.056290 435.370850,237.575851 434.467590,237.107956 
M434.703522,230.775314 
	C434.789398,228.560226 434.875275,226.345154 434.708466,223.702652 
	C434.517914,223.429718 434.296997,223.184082 433.644623,222.366165 
	C432.911713,221.992462 431.980377,221.128403 431.480499,221.330627 
	C429.413269,222.167007 426.494720,222.858994 425.724731,224.477432 
	C424.601135,226.839081 423.538910,230.356003 427.388214,232.110306 
	C429.779541,233.200119 432.323944,234.653030 433.969238,230.975357 
	C433.969238,230.975357 433.973358,230.921997 434.703522,230.775314 
M164.706055,275.027191 
	C165.153061,274.984528 165.600067,274.941864 166.918564,274.920135 
	C168.954483,274.938995 170.990402,274.957855 173.829666,274.851044 
	C174.220596,270.197205 174.779724,265.549408 174.947678,260.887512 
	C175.075180,257.348267 176.407272,255.975082 180.222488,257.683563 
	C182.115463,260.743866 183.841049,263.925690 185.949341,266.829651 
	C187.984055,269.632233 189.946762,273.077057 192.807907,274.515045 
	C195.397232,275.816376 199.156433,274.789978 202.542023,274.789978 
	C202.415085,273.584290 202.520462,273.012482 202.291885,272.652985 
	C199.395309,268.097473 196.617264,263.452393 193.463852,259.079041 
	C191.086929,255.782547 191.151062,253.820312 195.056290,251.760391 
	C200.580505,248.846481 202.674301,243.455231 201.307327,237.598923 
	C199.694641,230.689941 194.619980,225.293945 188.750809,224.951904 
	C180.479919,224.469894 172.185333,224.394638 163.128036,224.514023 
	C163.084106,240.549057 163.025452,256.584076 163.040649,272.619080 
	C163.041397,273.403717 163.688507,274.187744 164.706055,275.027191 
M313.028320,260.064514 
	C312.993317,253.046890 312.958313,246.029282 312.788300,238.366257 
	C310.974335,238.216675 309.089142,238.330322 307.361237,237.862732 
	C303.757172,236.887451 302.998138,238.647415 303.034424,241.693771 
	C303.099335,247.141418 303.001251,252.590973 303.064087,258.038666 
	C303.116547,262.588409 301.181488,265.447968 296.666412,266.706207 
	C292.181396,267.956085 291.586456,264.212067 289.932556,260.919434 
	C289.673309,253.006271 289.414032,245.093094 288.239563,237.175293 
	C279.490265,236.910034 278.516571,237.767395 279.114319,243.802780 
	C279.673553,249.449097 280.505310,255.273758 279.690430,260.794586 
	C278.831482,266.613922 281.331970,270.721039 285.057495,273.531647 
	C289.335754,276.759247 294.710846,277.107086 299.920624,274.127808 
	C301.398071,273.282928 303.770111,273.268951 305.498901,273.736084 
	C310.453827,275.074951 312.809784,273.592255 312.950409,268.455902 
	C313.018402,265.972412 312.967255,263.485718 313.028320,260.064514 
M239.868820,257.168182 
	C239.897491,255.505402 240.022079,253.837814 239.939377,252.180603 
	C239.377228,240.917343 227.007660,232.752975 216.648788,236.778091 
	C207.787155,240.221420 204.066269,245.457932 204.071518,254.837509 
	C204.078476,267.284393 207.336349,271.642914 216.259933,274.947662 
	C224.363510,277.948700 233.730087,274.894379 237.841965,267.647034 
	C239.522446,264.685120 238.752762,262.826813 235.561523,263.166626 
	C232.803024,263.460297 229.868332,264.600677 227.579758,266.186737 
	C224.577805,268.267181 221.787842,269.166260 219.153839,266.436340 
	C217.094299,264.301758 215.702347,261.523071 214.803360,259.026154 
	C219.956085,259.115326 225.113113,259.368286 230.259979,259.233643 
	C233.463318,259.149780 236.651321,258.479584 239.868820,257.168182 
M476.746185,224.283112 
	C470.212616,221.144638 468.089142,222.407333 467.965729,229.302719 
	C467.903320,232.788467 467.513580,236.268341 467.242310,240.176697 
	C455.445862,233.905365 450.610565,235.466049 444.612915,242.051346 
	C440.561493,246.499710 441.004486,252.418839 441.015991,258.104187 
	C441.046570,273.200775 452.784973,280.245483 465.855469,272.879608 
	C469.684784,275.803558 474.101562,275.819794 476.962585,272.004181 
	C476.950562,261.350311 476.938507,250.696472 476.980286,239.146835 
	C476.965576,236.753403 476.950836,234.359955 476.995789,231.103149 
	C476.967773,229.085342 476.939728,227.067551 476.746185,224.283112 
M353.823792,259.231476 
	C353.812378,258.155334 353.800964,257.079163 353.897186,255.344269 
	C353.617523,254.545837 353.337891,253.747406 353.109100,252.244736 
	C353.380890,251.647690 353.515839,250.916901 353.947113,250.475754 
	C356.389404,247.977356 358.381073,244.131775 362.765778,245.804474 
	C366.762115,247.328995 367.350067,250.938568 367.168274,254.825119 
	C367.005981,258.294617 367.101593,261.778107 367.142395,265.254761 
	C367.271393,276.242920 365.620361,274.895721 377.806000,274.728912 
	C377.846954,265.806610 377.887909,256.884277 377.753448,247.286285 
	C376.478760,245.001816 375.581787,242.370255 373.860077,240.496552 
	C368.203674,234.340912 361.041992,234.520187 353.540924,239.670822 
	C347.721161,238.292236 343.085693,236.368393 338.421570,236.296280 
	C332.457733,236.204086 326.470856,237.604980 320.113861,238.410583 
	C320.113861,248.646774 320.211365,259.291382 320.057983,269.932373 
	C320.008148,273.392120 320.731293,275.276306 324.724365,274.987335 
	C328.186890,274.736786 331.061035,274.514008 330.914032,269.894440 
	C330.739349,264.406189 330.856293,258.907990 330.880646,253.414276 
	C330.898590,249.359756 333.864990,245.444702 337.051117,245.195587 
	C340.054108,244.960785 343.994537,249.473160 344.034454,253.512482 
	C344.092010,259.336670 343.933167,265.162994 343.373596,271.544006 
	C343.907227,272.659760 344.436462,274.730774 344.975159,274.733215 
	C348.035187,274.747162 351.117737,274.364960 354.115967,273.746124 
	C354.328400,273.702240 353.926117,270.680145 353.831818,268.157684 
	C353.817932,266.092712 353.804047,264.027740 354.254730,261.695221 
	C354.101074,261.143036 353.947388,260.590820 353.823792,259.231476 
M263.831604,262.502075 
	C265.941803,264.014282 265.821594,266.093109 263.563782,266.493134 
	C260.469574,267.041351 255.698120,267.679901 254.235870,266.010620 
	C250.513367,261.761078 246.805115,265.069458 242.991638,263.932220 
	C243.530853,270.661560 248.002350,273.530792 252.822784,275.056732 
	C258.976868,277.004822 265.333191,276.548920 270.671204,272.150726 
	C277.242035,266.736755 276.094116,257.517029 268.298126,254.078003 
	C264.899292,252.578674 261.084869,252.042831 257.608551,250.686615 
	C256.334534,250.189590 255.492035,248.586426 254.452698,247.487823 
	C255.916443,246.334503 257.248077,244.554138 258.882263,244.209869 
	C260.418121,243.886322 262.245789,245.212265 263.994263,245.575653 
	C267.150238,246.231644 270.342896,246.710999 273.942566,247.337662 
	C273.725403,245.417633 273.772614,244.897049 273.601746,244.462143 
	C269.898315,235.036865 254.198776,232.593857 247.247406,240.348648 
	C240.650040,247.708511 242.967087,256.005615 252.487595,258.964752 
	C256.071869,260.078796 259.702118,261.044891 263.831604,262.502075 
z"/>
<path fill="#0C1E4D" opacity="1.000000" stroke="none" 
	d="
M131.097214,200.928299 
	C133.849747,203.585312 136.627747,206.216553 139.349365,208.904861 
	C144.592346,214.083710 143.303986,220.752243 143.360596,227.071701 
	C143.518402,244.683334 143.689392,262.295837 143.664139,279.907715 
	C143.652634,287.939880 143.646225,296.022583 142.749680,303.982391 
	C142.274582,308.200531 138.373749,310.809540 134.146973,310.862274 
	C118.318916,311.059967 102.486053,310.842651 86.654984,310.840363 
	C74.519920,310.838593 62.381996,311.094025 50.251240,310.888092 
	C45.667015,310.810272 40.672943,310.498108 39.083866,303.815063 
	C39.012814,301.692383 39.016224,300.335266 39.269749,298.651245 
	C39.674854,297.517853 39.964695,296.711487 39.965359,295.904846 
	C39.989704,266.185913 39.999123,236.466949 39.947037,206.748077 
	C39.944847,205.499725 39.335865,204.252411 39.006134,202.586349 
	C39.005512,200.773743 39.008324,199.379410 39.250687,197.698853 
	C39.982582,194.602875 40.474926,191.793137 40.967270,188.983398 
	C40.967274,188.983398 40.994469,188.996048 41.375809,188.934631 
	C45.656914,188.249268 49.596645,186.906006 53.449837,187.120102 
	C75.624466,188.352249 98.055626,183.750031 120.004700,189.973328 
	C120.004700,189.973328 120.007187,189.989380 120.140175,190.192566 
	C120.476936,190.646164 120.727211,190.834915 121.023987,190.962006 
	C121.023987,190.962006 121.005562,190.993362 121.142136,191.189529 
	C121.478386,191.641541 121.727310,191.833527 122.025482,191.961685 
	C122.025482,191.961685 122.004883,191.994690 122.143860,192.189362 
	C122.485413,192.638763 122.735603,192.831802 123.033409,192.963150 
	C123.033409,192.963150 123.023643,192.997452 123.088097,193.293854 
	C123.787086,194.046936 124.421631,194.503616 125.056168,194.960312 
	C125.331100,195.116333 125.568489,195.316818 126.021622,195.964813 
	C126.478294,196.626617 126.729744,196.824203 127.029266,196.960617 
	C127.029266,196.960617 127.023247,196.996475 127.086578,197.293915 
	C127.780350,198.039780 128.410782,198.488235 129.041214,198.936691 
	C129.041214,198.936691 129.017593,198.977982 129.089142,199.284760 
	C129.806183,200.037125 130.451691,200.482712 131.097214,200.928299 
M46.987507,297.476776 
	C47.247917,297.889160 47.508331,298.301575 48.076706,299.310760 
	C48.722698,299.906311 49.368694,300.501892 50.438061,301.512848 
	C51.012177,301.619476 51.586292,301.726105 52.902714,301.841003 
	C54.311462,301.589874 55.720211,301.338776 57.503948,301.083710 
	C57.503948,301.083710 57.878960,301.084381 58.666904,301.119659 
	C59.455376,301.136688 60.243851,301.153717 61.631386,301.595795 
	C63.137215,301.676636 64.643036,301.757477 66.857460,301.828339 
	C68.252892,301.619476 69.648331,301.410614 71.726570,301.630341 
	C80.203300,301.697723 88.680038,301.765106 98.063942,301.841888 
	C102.330177,301.845978 106.596413,301.850067 111.819038,301.952850 
	C117.211380,301.639771 122.603729,301.326691 128.776474,301.068665 
	C130.536392,300.051086 132.296310,299.033508 134.733902,297.495850 
	C134.824615,272.923798 134.936218,248.351746 134.924088,223.779770 
	C134.923645,222.867371 133.717209,221.955582 132.131256,221.003998 
	C127.465538,220.975601 122.786148,221.161148 118.137619,220.863937 
	C112.494781,220.503159 109.140594,216.742844 109.035805,211.120743 
	C108.964386,207.289001 108.782516,203.440109 109.048569,199.626694 
	C109.315094,195.806366 107.759636,194.773254 104.124405,194.814880 
	C89.794540,194.978928 75.460754,194.794388 61.130653,194.947784 
	C56.678844,194.995422 52.234104,195.702942 47.318081,196.664520 
	C47.165409,198.113007 47.012737,199.561478 46.407207,201.698349 
	C46.272625,213.373795 46.100548,225.049057 46.043930,236.724884 
	C46.035446,238.473846 46.568001,240.225464 47.015331,242.753860 
	C47.032570,243.815582 47.049812,244.877289 47.030640,246.876770 
	C47.320297,251.909866 47.609959,256.942963 47.180737,262.276276 
	C46.788250,265.954193 46.052658,269.634064 46.073978,273.309601 
	C46.119778,281.206970 46.555641,289.102112 46.987507,297.476776 
z"/>
<path fill="#0D1D4A" opacity="1.000000" stroke="none" 
	d="
M353.789551,256.003021 
	C353.800964,257.079163 353.812378,258.155334 353.652710,259.797852 
	C353.584503,260.897064 353.687317,261.429901 353.790161,261.962769 
	C353.804047,264.027740 353.817932,266.092712 353.611389,268.888428 
	C351.505798,273.906189 348.531494,274.333801 343.866699,270.988403 
	C343.933167,265.162994 344.092010,259.336670 344.034454,253.512482 
	C343.994537,249.473160 340.054108,244.960785 337.051117,245.195587 
	C333.864990,245.444702 330.898590,249.359756 330.880646,253.414276 
	C330.856293,258.907990 330.739349,264.406189 330.914032,269.894440 
	C331.061035,274.514008 328.186890,274.736786 324.724365,274.987335 
	C320.731293,275.276306 320.008148,273.392120 320.057983,269.932373 
	C320.211365,259.291382 320.113861,248.646774 320.113861,238.410583 
	C326.470856,237.604980 332.457733,236.204086 338.421570,236.296280 
	C343.085693,236.368393 347.721161,238.292236 353.540924,239.670822 
	C361.041992,234.520187 368.203674,234.340912 373.860077,240.496552 
	C375.581787,242.370255 376.478760,245.001816 377.485199,247.869171 
	C377.122772,257.281708 377.028625,266.111328 376.934448,274.940979 
	C365.620361,274.895721 367.271393,276.242920 367.142395,265.254761 
	C367.101593,261.778107 367.005981,258.294617 367.168274,254.825119 
	C367.350067,250.938568 366.762115,247.328995 362.765778,245.804474 
	C358.381073,244.131775 356.389404,247.977356 353.947113,250.475754 
	C353.515839,250.916901 353.380890,251.647690 353.072449,252.925186 
	C353.287018,254.404755 353.538300,255.203888 353.789551,256.003021 
z"/>
<path fill="#0E1E4D" opacity="1.000000" stroke="none" 
	d="
M173.026321,274.976746 
	C170.990402,274.957855 168.954483,274.938995 166.389297,274.511230 
	C165.569305,271.812317 165.043060,269.523926 165.027298,267.231995 
	C164.945038,255.256439 165.027222,243.279785 164.956482,231.304077 
	C164.946045,229.535477 164.425156,227.769897 164.059097,225.699860 
	C163.952133,224.979706 163.926498,224.562576 163.900879,224.145462 
	C172.185333,224.394638 180.479919,224.469894 188.750809,224.951904 
	C194.619980,225.293945 199.694641,230.689941 201.307327,237.598923 
	C202.674301,243.455231 200.580505,248.846481 195.056290,251.760391 
	C191.151062,253.820312 191.086929,255.782547 193.463852,259.079041 
	C196.617264,263.452393 199.395309,268.097473 202.291885,272.652985 
	C202.520462,273.012482 202.415085,273.584290 202.542023,274.789978 
	C199.156433,274.789978 195.397232,275.816376 192.807907,274.515045 
	C189.946762,273.077057 187.984055,269.632233 185.949341,266.829651 
	C183.841049,263.925690 182.115463,260.743866 179.970825,257.005798 
	C174.854156,253.744492 173.084534,254.606155 173.020660,259.705261 
	C172.956909,264.794922 173.019257,269.886200 173.026321,274.976746 
M188.870621,244.439774 
	C191.482590,242.208267 191.488907,239.574982 189.864090,236.847916 
	C187.944305,233.625748 181.601349,231.825317 176.767853,233.112976 
	C172.381439,234.281555 174.500107,237.975769 174.033875,240.629837 
	C173.836502,241.753372 173.803818,243.027267 174.144928,244.088623 
	C174.463608,245.080215 175.440796,246.683273 176.017288,246.636948 
	C180.149048,246.305023 184.252518,245.620636 188.870621,244.439774 
z"/>
<path fill="#0E1E4B" opacity="1.000000" stroke="none" 
	d="
M476.856110,272.920013 
	C474.101562,275.819794 469.684784,275.803558 465.855469,272.879608 
	C452.784973,280.245483 441.046570,273.200775 441.015991,258.104187 
	C441.004486,252.418839 440.561493,246.499710 444.612915,242.051346 
	C450.610565,235.466049 455.445862,233.905365 467.242310,240.176697 
	C467.513580,236.268341 467.903320,232.788467 467.965729,229.302719 
	C468.089142,222.407333 470.212616,221.144638 476.607117,224.955429 
	C476.624084,227.740677 476.780090,229.853592 476.936096,231.966522 
	C476.950836,234.359955 476.965576,236.753403 476.714783,239.924988 
	C476.299286,246.843140 475.999481,252.984329 476.048401,259.122742 
	C476.085052,263.723694 476.570496,268.321045 476.856110,272.920013 
M460.960846,245.431839 
	C453.281464,245.560226 450.533997,249.544937 450.919495,258.888245 
	C451.097626,263.205719 453.451141,265.622131 456.959686,266.195282 
	C459.267029,266.572266 462.448029,265.492798 464.312653,263.948517 
	C469.614594,259.557373 467.961121,249.656403 460.960846,245.431839 
z"/>
<path fill="#0F1E4A" opacity="1.000000" stroke="none" 
	d="
M406.973999,271.778931 
	C402.475952,276.553253 392.961029,277.323761 387.640076,273.344604 
	C382.295776,269.347961 380.776611,263.409332 384.975067,257.731140 
	C387.021454,254.963486 391.159027,253.261734 394.687775,252.199615 
	C398.555023,251.035599 402.811646,251.165192 406.897827,250.731140 
	C406.123260,244.546600 402.031036,242.360077 397.320740,245.577499 
	C394.087341,247.786102 390.940521,249.946136 386.939148,248.731079 
	C385.872375,248.407135 384.347412,246.000351 384.668915,245.267883 
	C387.110992,239.703705 393.346649,235.039520 404.362244,236.059036 
	C411.041656,236.677231 415.368286,240.131516 417.118164,247.114304 
	C417.229156,247.637115 417.124176,247.907883 416.889343,248.122284 
	C416.803741,249.246780 416.953003,250.156876 417.182800,251.504059 
	C417.215027,254.599197 417.166718,257.257263 416.863647,260.193848 
	C416.776337,262.342438 416.943787,264.212555 417.195892,266.487488 
	C417.276581,268.536957 417.272583,270.181610 416.894714,271.999084 
	C413.719574,272.942139 410.826385,274.350739 408.605865,270.985992 
	C408.562317,270.920044 407.539795,271.500214 406.973999,271.778931 
M398.017578,268.537903 
	C403.765991,268.545624 406.503754,266.040680 407.704498,258.871735 
	C404.686798,258.871735 401.651642,258.276428 399.023285,259.054779 
	C396.809021,259.710480 395.067505,261.962463 393.116699,263.507843 
	C394.522156,265.074799 395.927643,266.641754 398.017578,268.537903 
z"/>
<path fill="#0F1E4A" opacity="1.000000" stroke="none" 
	d="
M214.013763,259.030579 
	C215.702347,261.523071 217.094299,264.301758 219.153839,266.436340 
	C221.787842,269.166260 224.577805,268.267181 227.579758,266.186737 
	C229.868332,264.600677 232.803024,263.460297 235.561523,263.166626 
	C238.752762,262.826813 239.522446,264.685120 237.841965,267.647034 
	C233.730087,274.894379 224.363510,277.948700 216.259933,274.947662 
	C207.336349,271.642914 204.078476,267.284393 204.071518,254.837509 
	C204.066269,245.457932 207.787155,240.221420 216.648788,236.778091 
	C227.007660,232.752975 239.377228,240.917343 239.939377,252.180603 
	C240.022079,253.837814 239.897491,255.505402 239.401855,257.610626 
	C232.770004,258.038696 226.603424,257.937012 220.441193,258.057556 
	C218.293198,258.099579 216.155930,258.690399 214.013763,259.030579 
M227.652878,246.703796 
	C225.570908,245.793152 223.223495,243.808807 221.473602,244.241409 
	C219.245544,244.792221 217.501068,247.299118 215.548126,248.962769 
	C216.741882,249.850128 217.818741,251.129623 219.158005,251.528793 
	C220.964737,252.067307 222.971115,251.972778 224.895828,252.071625 
	C230.103973,252.339096 230.129059,252.285461 227.652878,246.703796 
z"/>
<path fill="#0F1E4A" opacity="1.000000" stroke="none" 
	d="
M263.571503,262.290253 
	C259.702118,261.044891 256.071869,260.078796 252.487595,258.964752 
	C242.967087,256.005615 240.650040,247.708511 247.247406,240.348648 
	C254.198776,232.593857 269.898315,235.036865 273.601746,244.462143 
	C273.772614,244.897049 273.725403,245.417633 273.942566,247.337662 
	C270.342896,246.710999 267.150238,246.231644 263.994263,245.575653 
	C262.245789,245.212265 260.418121,243.886322 258.882263,244.209869 
	C257.248077,244.554138 255.916443,246.334503 254.452698,247.487823 
	C255.492035,248.586426 256.334534,250.189590 257.608551,250.686615 
	C261.084869,252.042831 264.899292,252.578674 268.298126,254.078003 
	C276.094116,257.517029 277.242035,266.736755 270.671204,272.150726 
	C265.333191,276.548920 258.976868,277.004822 252.822784,275.056732 
	C248.002350,273.530792 243.530853,270.661560 242.991638,263.932220 
	C246.805115,265.069458 250.513367,261.761078 254.235870,266.010620 
	C255.698120,267.679901 260.469574,267.041351 263.563782,266.493134 
	C265.821594,266.093109 265.941803,264.014282 263.571503,262.290253 
z"/>
<path fill="#0D1D4A" opacity="1.000000" stroke="none" 
	d="
M289.870972,261.835663 
	C291.586456,264.212067 292.181396,267.956085 296.666412,266.706207 
	C301.181488,265.447968 303.116547,262.588409 303.064087,258.038666 
	C303.001251,252.590973 303.099335,247.141418 303.034424,241.693771 
	C302.998138,238.647415 303.757172,236.887451 307.361237,237.862732 
	C309.089142,238.330322 310.974335,238.216675 312.613708,239.021255 
	C312.616119,246.784317 312.793091,253.892395 312.970032,261.000458 
	C312.967255,263.485718 313.018402,265.972412 312.950409,268.455902 
	C312.809784,273.592255 310.453827,275.074951 305.498901,273.736084 
	C303.770111,273.268951 301.398071,273.282928 299.920624,274.127808 
	C294.710846,277.107086 289.335754,276.759247 285.057495,273.531647 
	C281.331970,270.721039 278.831482,266.613922 279.690430,260.794586 
	C280.505310,255.273758 279.673553,249.449097 279.114319,243.802780 
	C278.516571,237.767395 279.490265,236.910034 288.684265,237.632614 
	C289.376312,246.005173 289.623627,253.920425 289.870972,261.835663 
z"/>
<path fill="#0C1E4D" opacity="1.000000" stroke="none" 
	d="
M426.068298,237.119598 
	C428.114197,237.407455 430.160065,237.695312 432.771454,238.179581 
	C433.849762,238.590607 434.362610,238.805237 434.934570,239.349518 
	C434.943176,240.120880 434.892700,240.562592 434.614960,241.348190 
	C434.254700,250.123215 434.271393,258.560944 433.901154,266.981628 
	C433.783875,269.648529 432.633789,272.270050 431.956360,274.912323 
	C430.251495,274.912628 428.546661,274.912964 426.420227,274.438232 
	C426.021851,261.681976 426.045074,249.400787 426.068298,237.119598 
z"/>
<path fill="#0B173A" opacity="1.000000" stroke="none" 
	d="
M119.839264,189.672897 
	C98.055626,183.750031 75.624466,188.352249 53.449837,187.120102 
	C49.596645,186.906006 45.656914,188.249268 41.368286,188.921783 
	C43.597012,187.637543 46.197777,185.188812 48.834862,185.149063 
	C69.221130,184.841690 89.618156,184.809814 110.001724,185.209167 
	C113.251701,185.272842 116.451065,187.919785 119.839264,189.672897 
z"/>
<path fill="#222D42" opacity="1.000000" stroke="none" 
	d="
M39.011139,197.985077 
	C39.008324,199.379410 39.005512,200.773743 39.002899,203.054382 
	C39.008614,235.619843 39.014126,267.298981 39.019634,298.978149 
	C39.016224,300.335266 39.012814,301.692383 39.017426,303.451721 
	C38.685715,302.625183 38.051155,301.396820 38.049194,300.167511 
	C37.993904,265.432404 37.999592,230.697144 38.017807,195.961945 
	C38.018234,195.149490 38.276806,194.337189 38.705559,193.632843 
	C39.001144,195.155594 39.006142,196.570343 39.011139,197.985077 
z"/>
<path fill="#0E1E4D" opacity="1.000000" stroke="none" 
	d="
M434.045715,222.965744 
	C434.296997,223.184082 434.517914,223.429718 434.845734,224.302277 
	C434.646454,226.908615 434.309906,228.915298 433.973358,230.921997 
	C433.973358,230.921997 433.969238,230.975357 433.528625,230.980484 
	C427.806610,230.820053 425.147247,228.092957 427.551178,224.984283 
	C428.686890,223.515625 431.818451,223.590317 434.045715,222.965744 
z"/>
<path fill="#071130" opacity="1.000000" stroke="none" 
	d="
M164.140427,226.002914 
	C164.425156,227.769897 164.946045,229.535477 164.956482,231.304077 
	C165.027222,243.279785 164.945038,255.256439 165.027298,267.231995 
	C165.043060,269.523926 165.569305,271.812317 165.953552,274.500793 
	C165.600067,274.941864 165.153061,274.984528 164.403214,274.534912 
	C164.113724,258.029388 164.127075,242.016159 164.140427,226.002914 
z"/>
<path fill="#C2C9DC" opacity="1.000000" stroke="none" 
	d="
M164.059097,225.699860 
	C164.127075,242.016159 164.113724,258.029388 164.067505,274.507355 
	C163.688507,274.187744 163.041397,273.403717 163.040649,272.619080 
	C163.025452,256.584076 163.084106,240.549057 163.514450,224.329742 
	C163.926498,224.562576 163.952133,224.979706 164.059097,225.699860 
z"/>
<path fill="#071130" opacity="1.000000" stroke="none" 
	d="
M173.427994,274.913879 
	C173.019257,269.886200 172.956909,264.794922 173.020660,259.705261 
	C173.084534,254.606155 174.854156,253.744492 179.803375,256.704773 
	C176.407272,255.975082 175.075180,257.348267 174.947678,260.887512 
	C174.779724,265.549408 174.220596,270.197205 173.427994,274.913879 
z"/>
<path fill="#0F1E4A" opacity="1.000000" stroke="none" 
	d="
M433.845154,222.665955 
	C431.818451,223.590317 428.686890,223.515625 427.551178,224.984283 
	C425.147247,228.092957 427.806610,230.820053 433.502319,230.975494 
	C432.323944,234.653030 429.779541,233.200119 427.388214,232.110306 
	C423.538910,230.356003 424.601135,226.839081 425.724731,224.477432 
	C426.494720,222.858994 429.413269,222.167007 431.480499,221.330627 
	C431.980377,221.128403 432.911713,221.992462 433.845154,222.665955 
z"/>
<path fill="#7C88A2" opacity="1.000000" stroke="none" 
	d="
M425.636292,237.222260 
	C426.045074,249.400787 426.021851,261.681976 425.994385,274.421631 
	C425.477539,274.514679 424.512817,274.142853 424.517853,273.784729 
	C424.689697,261.630676 424.953644,249.477875 425.636292,237.222260 
z"/>
<path fill="#AEB6CA" opacity="1.000000" stroke="none" 
	d="
M214.408569,259.028381 
	C216.155930,258.690399 218.293198,258.099579 220.441193,258.057556 
	C226.603424,257.937012 232.770004,258.038696 239.390549,258.062805 
	C236.651321,258.479584 233.463318,259.149780 230.259979,259.233643 
	C225.113113,259.368286 219.956085,259.115326 214.408569,259.028381 
z"/>
<path fill="#071130" opacity="1.000000" stroke="none" 
	d="
M432.295593,274.934662 
	C432.633789,272.270050 433.783875,269.648529 433.901154,266.981628 
	C434.271393,258.560944 434.254700,250.123215 434.675293,241.813812 
	C434.967224,252.335770 434.971588,262.735992 434.975952,273.136230 
	C434.195557,273.743164 433.415192,274.350098 432.295593,274.934662 
z"/>
<path fill="#AEB6CA" opacity="1.000000" stroke="none" 
	d="
M435.386841,272.955322 
	C434.971588,262.735992 434.967224,252.335770 434.902527,241.469910 
	C434.892700,240.562592 434.943176,240.120880 434.988770,239.030640 
	C435.005829,237.953354 435.027832,237.524597 435.049805,237.095856 
	C435.370850,237.575851 435.972565,238.056290 435.971771,238.535767 
	C435.952942,249.948715 435.869446,261.361572 435.386841,272.955322 
z"/>
<path fill="#071130" opacity="1.000000" stroke="none" 
	d="
M343.620148,271.266205 
	C348.531494,274.333801 351.505798,273.906189 353.600342,269.331024 
	C353.926117,270.680145 354.328400,273.702240 354.115967,273.746124 
	C351.117737,274.364960 348.035187,274.747162 344.975159,274.733215 
	C344.436462,274.730774 343.907227,272.659760 343.620148,271.266205 
z"/>
<path fill="#0F1E4A" opacity="1.000000" stroke="none" 
	d="
M476.909363,272.462097 
	C476.570496,268.321045 476.085052,263.723694 476.048401,259.122742 
	C475.999481,252.984329 476.299286,246.843140 476.687866,240.372879 
	C476.938507,250.696472 476.950562,261.350311 476.909363,272.462097 
z"/>
<path fill="#AEB6CA" opacity="1.000000" stroke="none" 
	d="
M377.370239,274.834961 
	C377.028625,266.111328 377.122772,257.281708 377.572906,248.207016 
	C377.887909,256.884277 377.846954,265.806610 377.370239,274.834961 
z"/>
<path fill="#0B173A" opacity="1.000000" stroke="none" 
	d="
M407.234039,272.066376 
	C407.539795,271.500214 408.562317,270.920044 408.605865,270.985992 
	C410.826385,274.350739 413.719574,272.942139 417.028015,271.975952 
	C417.535217,271.780029 417.804596,271.805084 417.804596,271.805084 
	C415.859802,276.114777 410.571869,276.396179 407.234039,272.066376 
z"/>
<path fill="#7C88A2" opacity="1.000000" stroke="none" 
	d="
M417.790741,271.348145 
	C417.804596,271.805084 417.535217,271.780029 417.401886,271.803162 
	C417.272583,270.181610 417.276581,268.536957 417.267303,266.050110 
	C417.208801,263.443726 417.163605,261.679504 417.118378,259.915314 
	C417.166718,257.257263 417.215027,254.599197 417.249023,251.112030 
	C417.197845,249.491257 417.161011,248.699570 417.124176,247.907883 
	C417.124176,247.907883 417.229156,247.637115 417.167664,247.505585 
	C417.329742,255.213104 417.553314,263.052155 417.790741,271.348145 
z"/>
<path fill="#AEB6CA" opacity="1.000000" stroke="none" 
	d="
M289.901764,261.377563 
	C289.623627,253.920425 289.376312,246.005173 289.141846,237.634933 
	C289.414032,245.093094 289.673309,253.006271 289.901764,261.377563 
z"/>
<path fill="#222D42" opacity="1.000000" stroke="none" 
	d="
M312.999176,260.532471 
	C312.793091,253.892395 312.616119,246.784317 312.681244,239.343964 
	C312.958313,246.029282 312.993317,253.046890 312.999176,260.532471 
z"/>
<path fill="#0B173A" opacity="1.000000" stroke="none" 
	d="
M39.250687,197.698853 
	C39.006142,196.570343 39.001144,195.155594 38.986248,193.312561 
	C39.431206,191.679230 39.886063,190.474197 40.654095,189.126282 
	C40.474926,191.793137 39.982582,194.602875 39.250687,197.698853 
z"/>
<path fill="#0F1E4A" opacity="1.000000" stroke="none" 
	d="
M434.338440,230.848663 
	C434.309906,228.915298 434.646454,226.908615 434.972076,224.515991 
	C434.875275,226.345154 434.789398,228.560226 434.338440,230.848663 
z"/>
<path fill="#0F1E4A" opacity="1.000000" stroke="none" 
	d="
M476.965942,231.534836 
	C476.780090,229.853592 476.624084,227.740677 476.689880,225.338745 
	C476.939728,227.067551 476.967773,229.085342 476.965942,231.534836 
z"/>
<path fill="#071130" opacity="1.000000" stroke="none" 
	d="
M354.022461,261.828979 
	C353.687317,261.429901 353.584503,260.897064 353.637695,260.201416 
	C353.947388,260.590820 354.101074,261.143036 354.022461,261.828979 
z"/>
<path fill="#071130" opacity="1.000000" stroke="none" 
	d="
M434.758698,237.101898 
	C435.027832,237.524597 435.005829,237.953354 434.929626,238.700989 
	C434.362610,238.805237 433.849762,238.590607 433.164703,238.148529 
	C433.484161,237.650040 433.975891,237.378998 434.758698,237.101898 
z"/>
<path fill="#071130" opacity="1.000000" stroke="none" 
	d="
M353.843384,255.673645 
	C353.538300,255.203888 353.287018,254.404755 353.046997,253.277313 
	C353.337891,253.747406 353.617523,254.545837 353.843384,255.673645 
z"/>
<path fill="#0B173A" opacity="1.000000" stroke="none" 
	d="
M124.933609,194.696732 
	C124.421631,194.503616 123.787086,194.046936 123.100861,193.277786 
	C123.636459,193.454605 124.223755,193.943878 124.933609,194.696732 
z"/>
<path fill="#0B173A" opacity="1.000000" stroke="none" 
	d="
M128.919800,198.676575 
	C128.410782,198.488235 127.780350,198.039780 127.100212,197.280762 
	C127.633133,197.452286 128.215759,197.934372 128.919800,198.676575 
z"/>
<path fill="#0B173A" opacity="1.000000" stroke="none" 
	d="
M130.954132,200.677063 
	C130.451691,200.482712 129.806183,200.037125 129.111237,199.276031 
	C129.644882,199.448959 130.227966,199.937393 130.954132,200.677063 
z"/>
<path fill="#0B173A" opacity="1.000000" stroke="none" 
	d="
M122.923546,192.747437 
	C122.735603,192.831802 122.485413,192.638763 122.160332,192.179092 
	C122.356499,192.076462 122.615120,192.262314 122.923546,192.747437 
z"/>
<path fill="#0B173A" opacity="1.000000" stroke="none" 
	d="
M121.914520,191.748749 
	C121.727310,191.833527 121.478386,191.641541 121.158028,191.180847 
	C121.350487,191.083603 121.605888,191.270203 121.914520,191.748749 
z"/>
<path fill="#0B173A" opacity="1.000000" stroke="none" 
	d="
M126.921539,196.740051 
	C126.729744,196.824203 126.478294,196.626617 126.151138,196.159790 
	C126.349709,196.057602 126.611862,196.246857 126.921539,196.740051 
z"/>
<path fill="#0B173A" opacity="1.000000" stroke="none" 
	d="
M120.911911,190.749512 
	C120.727211,190.834915 120.476936,190.646164 120.147835,190.194824 
	C120.340118,190.091217 120.599228,190.272263 120.911911,190.749512 
z"/>
<path fill="#000001" opacity="1.000000" stroke="none" 
	d="
M134.056244,298.015930 
	C132.296310,299.033508 130.536392,300.051086 128.195862,300.783203 
	C123.568253,300.308441 119.516357,299.925415 115.476776,300.027893 
	C113.924294,300.067261 112.399864,301.212708 110.862648,301.854156 
	C106.596413,301.850067 102.330177,301.845978 97.479477,301.530640 
	C91.120361,300.822693 85.349968,300.241364 79.569252,300.108337 
	C76.737305,300.043182 73.886200,300.810944 71.043762,301.201752 
	C69.648331,301.410614 68.252892,301.619476 66.358749,301.520386 
	C64.250801,301.198517 62.641560,301.184631 61.032322,301.170776 
	C60.243851,301.153717 59.455376,301.136688 58.213100,300.962646 
	C57.759296,300.805603 57.371784,300.733612 57.371784,300.733612 
	C57.371784,300.733612 57.128963,301.087677 57.128960,301.087646 
	C55.720211,301.338776 54.311462,301.589874 52.439209,301.583801 
	C51.322037,301.250244 50.668362,301.173859 50.014687,301.097473 
	C49.368694,300.501892 48.722698,299.906311 48.007774,298.567291 
	C47.938217,287.251221 47.937588,276.678589 47.956501,265.693146 
	C47.950565,264.178894 47.925095,263.077484 47.899620,261.976074 
	C47.609959,256.942963 47.320297,251.909866 47.438110,246.220703 
	C47.825760,229.079208 47.805943,212.593781 47.786125,196.108353 
	C52.234104,195.702942 56.678844,194.995422 61.130653,194.947784 
	C75.460754,194.794388 89.794540,194.978928 104.124405,194.814880 
	C107.759636,194.773254 109.315094,195.806366 109.048569,199.626694 
	C108.782516,203.440109 108.964386,207.289001 109.035805,211.120743 
	C109.140594,216.742844 112.494781,220.503159 118.137619,220.863937 
	C122.786148,221.161148 127.465538,220.975601 132.745377,221.416016 
	C133.569656,223.599899 133.958313,225.371323 133.962997,227.143753 
	C134.025452,250.767731 134.034134,274.391846 134.056244,298.015930 
M84.018913,220.599533 
	C84.338150,221.069138 84.657387,221.538757 85.063293,222.683044 
	C85.084923,223.135910 85.106552,223.588791 84.624596,224.389893 
	C84.785606,225.247772 84.946625,226.105667 85.080978,227.498337 
	C85.057777,227.675308 85.034569,227.852280 84.270645,228.300903 
	C81.516212,228.874298 78.761787,229.447693 75.106178,230.044815 
	C72.401901,230.031158 69.697632,230.017502 66.387115,230.004623 
	C65.901039,230.318878 65.414963,230.633118 64.233360,231.074829 
	C61.186199,234.348969 55.829651,237.417480 55.516445,240.935043 
	C54.497246,252.381668 54.848621,264.024475 55.626522,275.527252 
	C56.047626,281.754028 61.296738,285.362030 68.505005,286.643402 
	C81.684563,286.755554 94.864128,286.867706 108.753082,286.874451 
	C116.495239,284.698212 120.939178,279.338501 121.443359,271.599152 
	C122.044731,262.368042 122.305428,253.005066 121.440292,243.819153 
	C120.587822,234.767776 114.084015,229.991226 105.077942,229.992447 
	C102.086906,229.992859 99.073746,230.217117 96.113274,229.917862 
	C94.383621,229.743027 91.328049,228.780594 91.306038,228.094315 
	C91.223579,225.523590 91.319092,222.182602 92.848358,220.470917 
	C97.104866,215.706665 96.039711,209.253723 90.337616,206.916397 
	C85.276115,204.841660 82.521927,207.243027 79.909950,211.712540 
	C79.446716,215.374374 78.640099,219.206055 83.997177,220.000076 
	C83.997177,220.000076 84.010086,220.000137 84.018913,220.599533 
z"/>
<path fill="#0B173A" opacity="1.000000" stroke="none" 
	d="
M39.269749,298.651245 
	C39.014126,267.298981 39.008614,235.619843 39.006332,203.472656 
	C39.335865,204.252411 39.944847,205.499725 39.947037,206.748077 
	C39.999123,236.466949 39.989704,266.185913 39.965359,295.904846 
	C39.964695,296.711487 39.674854,297.517853 39.269749,298.651245 
z"/>
<path fill="#7C88A2" opacity="1.000000" stroke="none" 
	d="
M134.395065,297.755890 
	C134.034134,274.391846 134.025452,250.767731 133.962997,227.143753 
	C133.958313,225.371323 133.569656,223.599899 133.216141,221.435760 
	C133.717209,221.955582 134.923645,222.867371 134.924088,223.779770 
	C134.936218,248.351746 134.824615,272.923798 134.395065,297.755890 
z"/>
<path fill="#C2C9DC" opacity="1.000000" stroke="none" 
	d="
M47.552101,196.386444 
	C47.805943,212.593781 47.825760,229.079208 47.456314,245.751831 
	C47.049812,244.877289 47.032570,243.815582 46.992401,241.900909 
	C46.933002,227.701965 46.896534,214.355957 46.860062,201.009964 
	C47.012737,199.561478 47.165409,198.113007 47.552101,196.386444 
z"/>
<path fill="#071130" opacity="1.000000" stroke="none" 
	d="
M71.385162,301.416046 
	C73.886200,300.810944 76.737305,300.043182 79.569252,300.108337 
	C85.349968,300.241364 91.120361,300.822693 97.025887,301.525940 
	C88.680038,301.765106 80.203300,301.697723 71.385162,301.416046 
z"/>
<path fill="#0B173A" opacity="1.000000" stroke="none" 
	d="
M46.633636,201.354156 
	C46.896534,214.355957 46.933002,227.701965 46.909874,241.511902 
	C46.568001,240.225464 46.035446,238.473846 46.043930,236.724884 
	C46.100548,225.049057 46.272625,213.373795 46.633636,201.354156 
z"/>
<path fill="#0B173A" opacity="1.000000" stroke="none" 
	d="
M47.540176,262.126160 
	C47.925095,263.077484 47.950565,264.178894 47.564034,265.870758 
	C47.045288,276.640198 46.938553,286.819183 46.831821,296.998169 
	C46.555641,289.102112 46.119778,281.206970 46.073978,273.309601 
	C46.052658,269.634064 46.788250,265.954193 47.540176,262.126160 
z"/>
<path fill="#C2C9DC" opacity="1.000000" stroke="none" 
	d="
M46.909664,297.237488 
	C46.938553,286.819183 47.045288,276.640198 47.544495,266.283600 
	C47.937588,276.678589 47.938217,287.251221 47.853794,298.268890 
	C47.508331,298.301575 47.247917,297.889160 46.909664,297.237488 
z"/>
<path fill="#071130" opacity="1.000000" stroke="none" 
	d="
M111.340843,301.903503 
	C112.399864,301.212708 113.924294,300.067261 115.476776,300.027893 
	C119.516357,299.925415 123.568253,300.308441 127.805649,300.755707 
	C122.603729,301.326691 117.211380,301.639771 111.340843,301.903503 
z"/>
<path fill="#071130" opacity="1.000000" stroke="none" 
	d="
M61.331856,301.383301 
	C62.641560,301.184631 64.250801,301.198517 66.004456,301.525360 
	C64.643036,301.757477 63.137215,301.676636 61.331856,301.383301 
z"/>
<path fill="#071130" opacity="1.000000" stroke="none" 
	d="
M50.226372,301.305176 
	C50.668362,301.173859 51.322037,301.250244 52.068062,301.579681 
	C51.586292,301.726105 51.012177,301.619476 50.226372,301.305176 
z"/>
<path fill="#071130" opacity="1.000000" stroke="none" 
	d="
M57.316456,301.085693 
	C57.128963,301.087677 57.371784,300.733612 57.371784,300.733612 
	C57.371784,300.733612 57.759296,300.805603 57.819130,300.945007 
	C57.878960,301.084381 57.503948,301.083710 57.316456,301.085693 
z"/>
<path fill="#000000" opacity="1.000000" stroke="none" 
	d="
M188.617798,244.743973 
	C184.252518,245.620636 180.149048,246.305023 176.017288,246.636948 
	C175.440796,246.683273 174.463608,245.080215 174.144928,244.088623 
	C173.803818,243.027267 173.836502,241.753372 174.033875,240.629837 
	C174.500107,237.975769 172.381439,234.281555 176.767853,233.112976 
	C181.601349,231.825317 187.944305,233.625748 189.864090,236.847916 
	C191.488907,239.574982 191.482590,242.208267 188.617798,244.743973 
z"/>
<path fill="#000000" opacity="1.000000" stroke="none" 
	d="
M461.299805,245.599014 
	C467.961121,249.656403 469.614594,259.557373 464.312653,263.948517 
	C462.448029,265.492798 459.267029,266.572266 456.959686,266.195282 
	C453.451141,265.622131 451.097626,263.205719 450.919495,258.888245 
	C450.533997,249.544937 453.281464,245.560226 461.299805,245.599014 
z"/>
<path fill="#000001" opacity="1.000000" stroke="none" 
	d="
M397.675354,268.373291 
	C395.927643,266.641754 394.522156,265.074799 393.116699,263.507843 
	C395.067505,261.962463 396.809021,259.710480 399.023285,259.054779 
	C401.651642,258.276428 404.686798,258.871735 407.704498,258.871735 
	C406.503754,266.040680 403.765991,268.545624 397.675354,268.373291 
z"/>
<path fill="#0B173A" opacity="1.000000" stroke="none" 
	d="
M416.863647,260.193848 
	C417.163605,261.679504 417.208801,263.443726 417.182617,265.645264 
	C416.943787,264.212555 416.776337,262.342438 416.863647,260.193848 
z"/>
<path fill="#0B173A" opacity="1.000000" stroke="none" 
	d="
M416.889343,248.122284 
	C417.161011,248.699570 417.197845,249.491257 417.168457,250.674957 
	C416.953003,250.156876 416.803741,249.246780 416.889343,248.122284 
z"/>
<path fill="#000001" opacity="1.000000" stroke="none" 
	d="
M227.816757,247.022125 
	C230.129059,252.285461 230.103973,252.339096 224.895828,252.071625 
	C222.971115,251.972778 220.964737,252.067307 219.158005,251.528793 
	C217.818741,251.129623 216.741882,249.850128 215.548126,248.962769 
	C217.501068,247.299118 219.245544,244.792221 221.473602,244.241409 
	C223.223495,243.808807 225.570908,245.793152 227.816757,247.022125 
z"/>
<path fill="#0E1E4B" opacity="1.000000" stroke="none" 
	d="
M85.128181,224.041656 
	C85.106552,223.588791 85.084923,223.135910 85.211884,222.161285 
	C84.910347,221.093063 84.460213,220.546600 84.010086,220.000137 
	C84.010086,220.000137 83.997177,220.000076 83.944023,219.641525 
	C82.613144,216.525299 81.335411,213.767609 80.057686,211.009933 
	C82.521927,207.243027 85.276115,204.841660 90.337616,206.916397 
	C96.039711,209.253723 97.104866,215.706665 92.848358,220.470917 
	C91.319092,222.182602 91.223579,225.523590 91.306038,228.094315 
	C91.328049,228.780594 94.383621,229.743027 96.113274,229.917862 
	C99.073746,230.217117 102.086906,229.992859 105.077942,229.992447 
	C114.084015,229.991226 120.587822,234.767776 121.440292,243.819153 
	C122.305428,253.005066 122.044731,262.368042 121.443359,271.599152 
	C120.939178,279.338501 116.495239,284.698212 108.248047,286.701843 
	C107.453873,286.317200 107.164726,286.105164 106.557472,285.651245 
	C95.437561,285.272614 84.635956,285.095673 73.833748,285.043335 
	C72.247475,285.035645 70.658325,285.620026 68.784096,285.946350 
	C68.307076,285.977844 68.116478,285.993469 67.925880,286.009064 
	C61.296738,285.362030 56.047626,281.754028 55.626522,275.527252 
	C54.848621,264.024475 54.497246,252.381668 55.516445,240.935043 
	C55.829651,237.417480 61.186199,234.348969 64.874084,230.978485 
	C66.007652,230.589371 66.500504,230.296600 66.993355,230.003845 
	C69.697632,230.017502 72.401901,230.031158 75.853668,230.272583 
	C79.821800,231.096680 83.153152,232.069824 85.011360,228.029251 
	C85.034569,227.852280 85.057777,227.675308 85.289696,227.028397 
	C85.375000,225.719528 85.251595,224.880585 85.128181,224.041656 
M63.379284,272.601715 
	C65.366966,276.489166 68.525406,278.395203 72.909523,278.471741 
	C75.381996,278.514923 77.850067,279.024872 80.318993,279.015839 
	C88.235939,278.986938 96.190910,279.233887 104.051979,278.511841 
	C107.732224,278.173767 112.176308,277.009064 112.268608,271.520721 
	C112.415070,262.812256 113.070633,254.087509 112.692596,245.405273 
	C112.494080,240.845947 108.987068,238.003723 104.175331,237.952240 
	C93.527367,237.838318 82.876518,237.860443 72.228355,237.971588 
	C68.575310,238.009689 65.323250,239.126678 63.162891,243.294754 
	C62.769878,246.148331 62.011276,249.007782 62.056999,251.854309 
	C62.165100,258.584229 62.655613,265.308044 63.379284,272.601715 
z"/>
<path fill="#222D42" opacity="1.000000" stroke="none" 
	d="
M106.875587,285.893097 
	C107.164726,286.105164 107.453873,286.317200 107.893356,286.754547 
	C94.864128,286.867706 81.684563,286.755554 68.215439,286.326233 
	C68.116478,285.993469 68.307076,285.977844 69.244370,285.963684 
	C82.285904,285.941132 94.580750,285.917114 106.875587,285.893097 
z"/>
<path fill="#0B173A" opacity="1.000000" stroke="none" 
	d="
M79.983818,211.361237 
	C81.335411,213.767609 82.613144,216.525299 83.946487,219.634995 
	C78.640099,219.206055 79.446716,215.374374 79.983818,211.361237 
z"/>
<path fill="#0B173A" opacity="1.000000" stroke="none" 
	d="
M84.641006,228.165070 
	C83.153152,232.069824 79.821800,231.096680 76.304260,230.260727 
	C78.761787,229.447693 81.516212,228.874298 84.641006,228.165070 
z"/>
<path fill="#0B173A" opacity="1.000000" stroke="none" 
	d="
M84.876389,224.215775 
	C85.251595,224.880585 85.375000,225.719528 85.303024,226.761002 
	C84.946625,226.105667 84.785606,225.247772 84.876389,224.215775 
z"/>
<path fill="#0B173A" opacity="1.000000" stroke="none" 
	d="
M84.014496,220.299835 
	C84.460213,220.546600 84.910347,221.093063 85.168556,221.823944 
	C84.657387,221.538757 84.338150,221.069138 84.014496,220.299835 
z"/>
<path fill="#0B173A" opacity="1.000000" stroke="none" 
	d="
M66.690231,230.004242 
	C66.500504,230.296600 66.007652,230.589371 65.221848,230.914764 
	C65.414963,230.633118 65.901039,230.318878 66.690231,230.004242 
z"/>
<path fill="#000001" opacity="1.000000" stroke="none" 
	d="
M63.892349,243.029770 
	C65.323250,239.126678 68.575310,238.009689 72.228355,237.971588 
	C82.876518,237.860443 93.527367,237.838318 104.175331,237.952240 
	C108.987068,238.003723 112.494080,240.845947 112.692596,245.405273 
	C113.070633,254.087509 112.415070,262.812256 112.268608,271.520721 
	C112.176308,277.009064 107.732224,278.173767 104.051979,278.511841 
	C96.190910,279.233887 88.235939,278.986938 80.318993,279.015839 
	C77.850067,279.024872 75.381996,278.514923 72.909523,278.471741 
	C68.525406,278.395203 65.366966,276.489166 63.221054,271.846527 
	C63.072887,269.278595 63.040623,267.464447 63.100395,265.653351 
	C63.349297,258.111664 63.625908,250.570877 63.892349,243.029770 
M97.980072,271.964325 
	C98.415932,267.759430 97.088181,266.178253 92.613998,267.646729 
	C89.325966,268.725922 85.824333,270.101288 82.297432,267.430725 
	C81.680489,266.963593 79.483589,268.583038 78.016380,269.238800 
	C78.699745,270.691528 79.106552,273.155426 80.112015,273.430389 
	C85.971420,275.032898 91.955154,275.825226 97.980072,271.964325 
M71.174225,250.626907 
	C71.353828,251.881180 71.158272,253.387695 71.794945,254.334671 
	C72.947418,256.048859 74.401016,258.277985 76.102272,258.669434 
	C77.368988,258.960938 80.518639,256.728210 80.550285,255.558029 
	C80.617477,253.072922 79.751862,250.036713 78.128960,248.278412 
	C77.434029,247.525482 73.894249,249.398315 71.174225,250.626907 
M100.055725,247.130524 
	C93.734299,247.396698 96.519836,252.283722 96.258911,255.289581 
	C96.161652,256.410004 98.412521,258.804108 99.398506,258.704102 
	C100.974854,258.544067 103.156792,257.084930 103.715744,255.644547 
	C104.967415,252.418991 103.681740,249.499115 100.055725,247.130524 
z"/>
<path fill="#0B173A" opacity="1.000000" stroke="none" 
	d="
M106.557472,285.651245 
	C94.580750,285.917114 82.285904,285.941132 69.530792,285.947815 
	C70.658325,285.620026 72.247475,285.035645 73.833748,285.043335 
	C84.635956,285.095673 95.437561,285.272614 106.557472,285.651245 
z"/>
<path fill="#222D42" opacity="1.000000" stroke="none" 
	d="
M63.527618,243.162262 
	C63.625908,250.570877 63.349297,258.111664 63.100395,265.653351 
	C63.040623,267.464447 63.072887,269.278595 63.027161,271.562805 
	C62.655613,265.308044 62.165100,258.584229 62.056999,251.854309 
	C62.011276,249.007782 62.769878,246.148331 63.527618,243.162262 
z"/>
<path fill="#0F1E4A" opacity="1.000000" stroke="none" 
	d="
M97.822845,272.302002 
	C91.955154,275.825226 85.971420,275.032898 80.112015,273.430389 
	C79.106552,273.155426 78.699745,270.691528 78.016388,269.238800 
	C79.483589,268.583038 81.680489,266.963593 82.297432,267.430725 
	C85.824333,270.101288 89.325966,268.725922 92.613998,267.646729 
	C97.088181,266.178253 98.415932,267.759430 97.822845,272.302002 
z"/>
<path fill="#0F1E4A" opacity="1.000000" stroke="none" 
	d="
M71.410660,250.352493 
	C73.894249,249.398315 77.434029,247.525482 78.128960,248.278412 
	C79.751862,250.036713 80.617477,253.072922 80.550285,255.558029 
	C80.518639,256.728210 77.368988,258.960938 76.102272,258.669434 
	C74.401016,258.277985 72.947418,256.048859 71.794945,254.334671 
	C71.158272,253.387695 71.353828,251.881180 71.410660,250.352493 
z"/>
<path fill="#0F1E4A" opacity="1.000000" stroke="none" 
	d="
M100.422531,247.284912 
	C103.681740,249.499115 104.967415,252.418991 103.715744,255.644547 
	C103.156792,257.084930 100.974854,258.544067 99.398506,258.704102 
	C98.412521,258.804108 96.161652,256.410004 96.258911,255.289581 
	C96.519836,252.283722 93.734299,247.396698 100.422531,247.284912 
z"/>
</svg>